<?xml version="1.0" standalone="no"?><!DOCTYPE svg PUBLIC "-//W3C//DTD SVG 1.1//EN" "http://www.w3.org/Graphics/SVG/1.1/DTD/svg11.dtd"><svg t="1627029643742" class="icon" viewBox="0 0 1024 1024" version="1.1" xmlns="http://www.w3.org/2000/svg" p-id="2023" data-spm-anchor-id="a313x.7781069.0.i2" xmlns:xlink="http://www.w3.org/1999/xlink" width="200" height="200"><defs><style type="text/css">@font-face { font-family: feedback-iconfont; src: url("//at.alicdn.com/t/font_1031158_1uhr8ri0pk5.eot?#iefix") format("embedded-opentype"), url("//at.alicdn.com/t/font_1031158_1uhr8ri0pk5.woff2") format("woff2"), url("//at.alicdn.com/t/font_1031158_1uhr8ri0pk5.woff") format("woff"), url("//at.alicdn.com/t/font_1031158_1uhr8ri0pk5.ttf") format("truetype"), url("//at.alicdn.com/t/font_1031158_1uhr8ri0pk5.svg#iconfont") format("svg"); }
</style></defs><path d="M514 965.8c-61.1 0-120.3-12-176.1-35.6-53.9-22.8-102.3-55.4-143.8-97-41.5-41.5-74.2-89.9-97-143.8-23.6-55.8-35.6-115.1-35.6-176.1 0-61.1 12-120.3 35.6-176.1 22.8-53.9 55.4-102.3 97-143.8 41.5-41.5 89.9-74.2 143.8-97 55.8-23.6 115-35.6 176.1-35.6 61.1 0 120.3 12 176.1 35.6 53.9 22.8 102.3 55.4 143.8 97 41.5 41.5 74.2 89.9 97 143.8 23.6 55.8 35.6 115.1 35.6 176.1 0 61.1-12 120.3-35.6 176.1-22.8 53.9-55.4 102.3-97 143.8-41.5 41.5-89.9 74.2-143.8 97-55.7 23.6-115 35.6-176.1 35.6z m0-830c-208.2 0-377.5 169.3-377.5 377.5S305.8 890.8 514 890.8s377.5-169.3 377.5-377.5S722.2 135.8 514 135.8z" fill="#ffffff" p-id="2024" data-spm-anchor-id="a313x.7781069.0.i1" class="selected"></path><path d="M460.7 745.8l-103-1.2 0.6-449.6h167.5c18.5-1.3 103.6-4.5 159.4 45.6 29.8 26.7 45.9 63.7 46.6 107 1 58.1-22.2 94.1-41.9 114-51.9 52.7-131 52.7-160.8 52.7h-68.4v131.5z m0-233.8h68.5c16.3 0 66 0 87.7-22.1 3.2-3.3 12.9-13.2 12.5-40.5-0.3-19.1-6.9-27.4-12.6-32.5-20.8-18.6-66.6-21.3-84.3-19.7l-2.4 0.2h-69.5V512z" fill="#ffffff" p-id="2025" data-spm-anchor-id="a313x.7781069.0.i3" class="selected"></path></svg>